<svg xmlns="http://www.w3.org/2000/svg" width="396" height="254" viewBox="0 0 396 254" role="img" aria-labelledby="title desc"><title id="title">SafeFlow</title><desc id="desc">Private · In development. Anti-fraud sandbox for transaction simulation, detection rules, ML experiments, and analytics.</desc><g font-family="-apple-system, BlinkMacSystemFont, &#x27;Segoe UI&#x27;, Arial, sans-serif"><rect x=".5" y=".5" width="395" height="253" rx="14" fill="#f6faf6" stroke="#b8cfbd"/><rect x="22" y="23" width="23" height="3" rx="1.5" fill="#8d5f1e"/><text x="22" y="48" fill="#3c7659" font-size="12" font-weight="600" letter-spacing="1.1">ANTI-FRAUD SANDBOX</text><text x="22" y="84" fill="#25352e" font-size="28" font-weight="650">SafeFlow</text><g stroke="#3c7659" fill="none" stroke-width="1.5" opacity=".65"><path d="M299 31h22l17 18h27M299 59h22l17-10M338 49v30h28"/><circle cx="296" cy="31" r="3"/><circle cx="296" cy="59" r="3"/><circle cx="369" cy="49" r="3"/><circle cx="369" cy="79" r="3"/></g><g transform="translate(326 31) scale(0.9)" fill="none" stroke="#3c7659" stroke-width="1.7" stroke-linecap="round" stroke-linejoin="round"><path d="M12 2 21 6v6c0 5-9 10-9 10S3 17 3 12V6Z"/><path d="m8 12 3 3 5-6"/></g><rect x="22" y="99" width="205" height="26" rx="7" fill="#e8f0e8"/><circle cx="33" cy="112" r="3" fill="#8d5f1e"/><text x="43" y="117" fill="#4e6260" font-size="13.5">Private · In development</text><text x="22" y="151" fill="#25352e" font-size="16.5">Anti-fraud sandbox for transaction</text><text x="22" y="172" fill="#25352e" font-size="16.5">simulation, detection rules, ML</text><text x="22" y="193" fill="#25352e" font-size="16.5">experiments, and analytics.</text><path d="M22 215h352" stroke="#b8cfbd"/><text x="22" y="236" fill="#4e6260" font-size="12.5">Simulation / Rules / ML</text></g></svg>
